<svg width="37" height="38" viewBox="0 0 37 38" fill="none" xmlns="http://www.w3.org/2000/svg">
<path fill-rule="evenodd" clip-rule="evenodd" d="M3.1292 33.7542L3.84361 33.5399L4.21634 34.3336L5.87036 33.2463C8.35083 32.3135 11.019 32.0245 13.6357 32.405C13.7949 32.9791 14.0583 33.5176 14.4122 33.9923C14.2258 34.3812 13.9773 35.3494 13.9152 35.4367L13.3794 36.159C14.1001 36.078 14.7758 35.7606 15.3052 35.2542C15.816 35.7411 16.2277 36.3264 16.5166 36.9764C16.8583 35.905 16.1827 34.8336 15.5848 33.9129L15.81 32.8097L17.4251 33.159L18.4036 32.7066C18.7841 32.532 19.1801 32.397 19.5451 32.2304C20.4138 31.9625 21.3104 31.8 22.2163 31.7463H23.0705H24.942C25.7181 31.9576 26.4664 32.2641 27.1706 32.659L28.4519 32.8415H29.6633L30.0671 32.4288L30.9446 32.4526L35.8988 7.54784C34.8039 7.46848 33.81 7.48435 32.8471 7.35737C31.0222 7.11927 29.4459 6.47642 27.2638 5.97642C26.0318 5.62288 24.7614 5.42825 23.4821 5.39705C23.0205 5.39084 22.5596 5.43609 22.1076 5.53197C21.766 5.66689 21.7893 5.82562 21.7427 5.74626C21.5408 5.35737 20.9661 5.38118 20.8729 4.95261C20.78 4.54228 20.6446 4.14321 20.4691 3.76213C20.2184 3.14883 19.8576 2.58892 19.4053 2.11134C18.5877 1.4482 17.5759 1.08487 16.5321 1.07959C15.6805 1.15757 14.8681 1.48085 14.1891 2.01187C13.51 2.5429 12.9923 3.25989 12.6961 4.07959C12.4376 4.60853 12.2645 5.17671 12.1836 5.76213C12.1836 6.0161 12.2845 6.03991 12.0127 6.02403C10.0601 5.96693 8.11406 6.28182 6.27415 6.95261C5.90918 7.06372 5.53645 7.19864 5.15595 7.30975C4.78221 7.43376 4.39716 7.51885 4.00668 7.56372L0.124023 7.98435L3.16026 33.7463L3.1292 33.7542Z" fill="#009FE3" stroke="#009FE3" stroke-width="0.22" stroke-miterlimit="2.61"/>
<path fill-rule="evenodd" clip-rule="evenodd" d="M7.71874 31.4842L4.27094 33.7382C3.25369 25.4683 1.16482 8.87311 1.22694 8.9366C2.21775 8.89792 3.20172 8.75159 4.16223 8.50009C6.72478 7.88898 10.3745 7.01597 12.0751 7.33343C12.2615 7.33343 12.0285 7.69057 12.2847 8.05565C12.7658 8.52059 13.3574 8.8489 14.0009 9.00803C13.9543 7.262 15.6161 9.59533 15.5539 9.45247C15.4918 9.03977 16.4237 8.85723 16.1441 8.38104C15.8646 7.90485 15.2822 7.63501 14.9405 7.34136C14.7231 7.15882 14.296 6.75406 14.2882 6.54771C14.2105 4.96041 15.2666 3.30168 16.6178 3.14295C16.8896 3.04055 17.1811 3.00488 17.4689 3.03882C17.7566 3.07276 18.0326 3.17535 18.2744 3.33832C18.5162 3.50129 18.7172 3.72008 18.8611 3.97703C19.0049 4.23398 19.0877 4.5219 19.1027 4.81755C19.0592 5.08953 18.9863 5.35572 18.8853 5.6112C18.8554 5.84278 18.8398 6.07604 18.8387 6.30962C18.8387 6.74612 18.9474 6.80962 18.9008 6.8493L17.1148 8.54771L17.8913 9.27787C18.0466 9.41279 19.0095 8.27787 19.5764 8.13501C19.7084 8.13501 19.7627 8.60327 19.8404 8.53978C20.1106 8.3125 20.4459 8.18153 20.7955 8.16676C21.2226 8.16676 21.3236 8.57946 21.5721 7.96041C21.6963 7.62708 21.6653 7.22231 21.7584 7.16676C25.2528 6.21438 30.4711 8.42866 34.3538 8.71438L29.516 32.4525C29.516 32.4525 28.9181 32.8255 27.4504 32.2779C22.5272 30.4445 21.5332 29.8176 17.1536 32.6271C17.0138 32.7144 16.8275 32.6271 16.4858 32.5318C16.1441 32.4366 14.0785 31.8493 13.7058 31.7382C12.5177 31.4604 12.5488 31.508 11.3141 31.2858C9.50477 30.9683 8.68941 30.8414 7.71874 31.4683V31.4842Z" fill="white" stroke="#009FE3" stroke-width="0.22" stroke-miterlimit="2.61"/>
<path fill-rule="evenodd" clip-rule="evenodd" d="M20.6326 18.1667C21.3082 18.5159 21.8207 19.0635 21.7663 19.3969C21.712 19.7302 21.1141 19.7064 20.4307 19.3969C19.7474 19.0873 19.2426 18.4524 19.297 18.1191C19.3513 17.7858 19.9493 17.8096 20.6326 18.1191V18.1667Z" fill="#FFED00" stroke="#E30613" stroke-width="0.3" stroke-miterlimit="2.61"/>
<path fill-rule="evenodd" clip-rule="evenodd" d="M22.1701 22.4918C22.9467 22.6188 23.3815 20.1744 23.3272 20.5395C23.2482 20.8169 23.2617 21.1134 23.3658 21.3821C23.4698 21.6508 23.6584 21.8765 23.9018 22.0236C23.9711 22.0481 24.0451 22.0559 24.1179 22.0463C24.1906 22.0366 24.2602 22.0098 24.3211 21.968C24.5135 21.8231 24.6747 21.6394 24.7948 21.4283C25.0124 20.6018 25.0124 19.7311 24.7948 18.9045C24.6382 18.3514 24.308 17.8662 23.8552 17.5236C23.3603 17.0866 22.8057 16.7257 22.209 16.4521L21.347 16.6982L22.0226 17.1664C22.0226 17.1664 21.1606 17.3172 21.1373 17.6664C21.1141 18.0156 21.743 18.7141 21.8285 19.5474L21.8906 20.0871C21.8939 20.8905 21.9957 21.6904 22.1934 22.468L22.1701 22.4918Z" fill="#FFED00" stroke="#E30613" stroke-width="0.3" stroke-miterlimit="2.61"/>
<path fill-rule="evenodd" clip-rule="evenodd" d="M13.6439 16.5795C14.0321 16.1986 13.1391 15.9684 12.8673 15.8414C12.3156 15.7803 11.7576 15.8233 11.2211 15.9684L9.92429 16.1906C9.10656 16.2517 8.32398 16.5551 7.67235 17.0637C7.49994 17.2546 7.38144 17.4898 7.32947 17.7442C7.27751 17.9986 7.29403 18.2626 7.37727 18.5081C7.99849 20.1589 9.98641 19.3017 10.7241 18.8732C11.1046 18.6033 11.5395 18.5716 11.8967 18.2224L12.6732 17.7303C13.1158 17.4129 13.5818 16.9367 13.6128 16.5875L13.6439 16.5795Z" fill="#FFED00" stroke="#E30613" stroke-width="0.3" stroke-miterlimit="2.61"/>
<path fill-rule="evenodd" clip-rule="evenodd" d="M12.7194 18.389C12.1681 18.0239 10.716 18.6985 10.3899 18.9842C9.30271 19.8413 8.44852 20.2858 8.10685 21.7144C7.69529 24.4525 10.8791 24.3572 11.71 22.262C12.0046 21.6755 12.2639 21.0712 12.4865 20.4525C12.6496 20.0874 12.7505 19.7223 12.9058 19.3572C12.8282 19.0318 12.8204 18.7144 12.7427 18.389H12.7194Z" fill="#FFED00" stroke="#E30613" stroke-width="0.3" stroke-miterlimit="2.61"/>
<path fill-rule="evenodd" clip-rule="evenodd" d="M13.8069 14.5872L13.4574 14.2777C13.2633 14.111 13.0614 13.8253 13.24 13.984C14.894 15.3809 11.9742 11.6031 9.48158 11.6428C9.09497 11.6102 8.70987 11.7216 8.39733 11.9564C8.08478 12.1912 7.86587 12.5337 7.78097 12.9205C7.71546 13.1436 7.71123 13.3808 7.76875 13.6062C7.82627 13.8315 7.94333 14.0364 8.10712 14.1983C8.53094 14.5514 9.01551 14.8206 9.53594 14.992L10.4289 15.238C10.9961 15.4395 11.5913 15.5467 12.1917 15.5555C12.8517 15.6031 14.0553 15.9523 13.7447 14.611L13.8069 14.5872Z" fill="#FFED00" stroke="#E30613" stroke-width="0.3" stroke-miterlimit="2.61"/>
<path fill-rule="evenodd" clip-rule="evenodd" d="M19.0793 18.5951L18.3028 19.4522C17.9339 19.9515 17.7671 20.5767 17.8368 21.1983L18.2173 22.1507C18.3685 22.4996 18.545 22.8365 18.7454 23.1586C18.9162 23.4933 19.1304 23.803 19.3821 24.0792C19.4848 24.1812 19.6064 24.2612 19.7398 24.3143C19.8731 24.3675 20.0156 24.3928 20.1587 24.3888C20.279 24.3975 20.3991 24.3697 20.5041 24.309C20.609 24.2483 20.6942 24.1574 20.7488 24.0475L20.8808 23.7062C20.9392 23.5554 20.9809 23.3983 21.0051 23.238C21.0656 22.8736 21.0916 22.5042 21.0827 22.1348C21.0851 21.8656 21.0457 21.5978 20.9663 21.3411C20.788 20.8141 20.5645 20.3042 20.2984 19.8173C20.1354 19.6983 19.2424 18.6903 19.0793 18.5713V18.5951Z" fill="#FFED00" stroke="#E30613" stroke-width="0.3" stroke-miterlimit="2.61"/>
<path fill-rule="evenodd" clip-rule="evenodd" d="M10.2421 15.1746C8.31631 14.4206 8.02899 14.0476 6.80984 14.3809C5.85471 14.619 4.89957 16.0794 6.57688 16.9762C7.87369 17.5159 8.90647 16.5159 9.73736 16.1825C10.2654 16.1825 10.5139 15.5159 10.5605 15.3889C10.6071 15.2619 10.2343 15.3889 10.2421 15.2143V15.1746Z" fill="#FFED00" stroke="#E30613" stroke-width="0.3" stroke-miterlimit="2.61"/>
<path fill-rule="evenodd" clip-rule="evenodd" d="M25.5401 14.7461C24.8934 14.7615 24.2524 14.8739 23.6376 15.0794L22.8999 15.3334C22.5116 15.3969 22.3641 15.4921 22.2631 15.762C22.1622 16.0318 22.2631 15.881 22.3408 16.0556C22.4184 16.2302 22.8533 16.5794 23.0552 16.7461C23.2571 16.9128 23.358 17.0636 23.5444 17.2143C23.8609 17.5312 24.2646 17.7416 24.7014 17.8175C25.2248 17.9109 25.7635 17.8504 26.2545 17.6429C26.4972 17.5359 26.7105 17.3697 26.8757 17.1588C27.0134 16.9153 27.0852 16.6388 27.0839 16.3575C27.0827 16.0763 27.0083 15.8005 26.8685 15.5583C26.7287 15.3161 26.5284 15.1162 26.2882 14.979C26.0479 14.8419 25.7764 14.7725 25.5013 14.7778L25.5401 14.7461Z" fill="#FFED00" stroke="#E30613" stroke-width="0.3" stroke-miterlimit="2.61"/>
<path fill-rule="evenodd" clip-rule="evenodd" d="M27.2562 11.024C26.4797 10.2938 24.8567 10.8732 24.0491 11.6113L23.3192 12.2859C22.9456 12.5486 22.6176 12.8731 22.3485 13.2462C22.1466 13.4446 21.8049 13.889 21.572 14.0795C21.4788 14.2224 20.8343 14.6589 20.9818 14.8732L21.3701 14.9922L21.5331 15.4446C22.7707 15.2252 23.9966 14.9417 25.2061 14.5954C26.1846 14.2224 28.6151 12.2144 27.2717 10.9684L27.2562 11.024Z" fill="#FFED00" stroke="#E30613" stroke-width="0.3" stroke-miterlimit="2.61"/>
<path fill-rule="evenodd" clip-rule="evenodd" d="M17.9844 10.0556L17.7359 9.55562C17.4331 8.92864 16.5944 8.50007 16.1829 8.88102C15.9332 9.09133 15.7742 9.39342 15.7402 9.72229L15.8878 11.3096C15.7868 11.7937 15.8878 12.2699 15.8179 12.5239C15.7635 12.9604 16.3382 14.3096 16.0508 13.4128C16.1707 13.7928 16.3377 14.1555 16.5478 14.4921L16.7886 14.7302L16.9594 14.3572C17.1691 13.3017 17.27 14.0556 17.7359 13.4683L17.899 13.2223C18.2795 12.881 18.295 11.4048 18.295 11.135C18.254 10.7716 18.1705 10.4146 18.0465 10.0715L17.9844 10.0556Z" fill="#FFED00" stroke="#E30613" stroke-width="0.3" stroke-miterlimit="2.61"/>
<path fill-rule="evenodd" clip-rule="evenodd" d="M11.0889 8.77784L10.887 8.96832C10.6805 9.30162 10.5633 9.68447 10.5469 10.0786C10.5305 10.4728 10.6157 10.8644 10.7938 11.2143C11.1738 11.9865 11.79 12.6107 12.5488 12.9921C12.789 13.3057 13.0806 13.5743 13.4108 13.7858C13.6791 13.911 13.9645 13.994 14.2572 14.0318H14.7076L15.5462 13.8493C15.3699 13.1884 15.1546 12.5391 14.9017 11.9048L14.5833 11.1985C14.3449 10.5647 13.9949 9.981 13.5505 9.47625C13.2573 9.18432 12.912 8.95262 12.5333 8.79371C12.0751 8.61911 11.3995 8.53181 11.1277 8.79371L11.0889 8.77784Z" fill="#FFED00" stroke="#E30613" stroke-width="0.3" stroke-miterlimit="2.61"/>
<path fill-rule="evenodd" clip-rule="evenodd" d="M14.3581 19.2619L14.265 18.4683C14.265 18.1984 13.3952 18.381 13.0225 19.2222L12.5876 20.2064C12.1858 20.8176 11.95 21.527 11.9043 22.2619C12.4945 24.5397 14.7076 21.5556 15.1424 20.6746C15.5229 20.3334 14.9871 19.7143 14.9949 19.4524C15.0027 19.1905 14.4047 19.5318 14.3581 19.3334V19.2619Z" fill="#FFED00" stroke="#E30613" stroke-width="0.3" stroke-miterlimit="2.61"/>
<path fill-rule="evenodd" clip-rule="evenodd" d="M16.7572 18.2539C16.2524 18.2539 15.934 19.0476 16.0428 19.9364C16.1515 20.8253 16.6485 21.619 17.1532 21.619C17.6579 21.619 17.9763 20.8253 17.8676 19.9364C17.7589 19.0476 17.2542 18.2539 16.7572 18.2539Z" fill="#FFED00" stroke="#E30613" stroke-width="0.3" stroke-miterlimit="2.61"/>
<path fill-rule="evenodd" clip-rule="evenodd" d="M24.4374 9.30956C24.0957 8.65877 23.2415 8.26988 22.1078 9.60321L21.1992 10.627C20.8576 11.1826 20.314 11.6667 19.9257 12.2143C19.6745 12.5966 19.4463 12.9942 19.2424 13.4048C19.157 13.754 19.056 13.754 19.1026 14.0159V14.5715L19.817 13.9683C20.1354 14.1588 20.3218 14.7619 20.7566 14.4445L22.1311 13.3254C22.8916 12.7804 23.5582 12.1099 24.1035 11.3413C24.3356 11.0681 24.493 10.737 24.5598 10.3817C24.6266 10.0263 24.6004 9.65921 24.484 9.3175L24.4374 9.30956Z" fill="#FFED00" stroke="#E30613" stroke-width="0.3" stroke-miterlimit="2.61"/>
<path fill-rule="evenodd" clip-rule="evenodd" d="M19.18 9.38905L18.6908 10.0875C18.4812 10.5085 18.3296 10.9572 18.2404 11.4208C18.1822 11.7508 18.1981 12.09 18.287 12.4129C18.3879 12.6271 18.4889 12.3097 18.6597 12.4129L18.7374 12.9049L18.9703 12.2462C19.2887 11.9922 19.8711 12.1906 20.1429 11.8811L20.8107 11.1986C21.2613 10.7597 21.5999 10.2147 21.7969 9.61127C21.8161 9.42126 21.7964 9.22925 21.7389 9.04749C21.6814 8.86573 21.5874 8.69824 21.463 8.55571C20.9272 8.12714 19.9099 8.30968 19.18 9.38905Z" fill="#FFED00" stroke="#E30613" stroke-width="0.3" stroke-miterlimit="2.61"/>
<path fill-rule="evenodd" clip-rule="evenodd" d="M15.3599 9.11104C15.1813 8.81739 14.4902 8.11104 14.1175 8.46819C13.9755 8.63399 13.882 8.83726 13.8477 9.05479C13.8133 9.27232 13.8396 9.49533 13.9234 9.69835L14.0631 10.1507C14.0631 10.4523 14.3582 10.8333 14.5135 11.0872C14.5668 11.2862 14.6535 11.4742 14.7698 11.6428C14.8785 11.7698 14.9484 11.9523 15.0726 12.0158L15.6706 12.5237L15.8181 11.8729C15.8649 11.6404 15.8908 11.404 15.8958 11.1666L15.8492 10.6904C15.8739 10.2958 15.8046 9.90087 15.6473 9.53961L15.3599 9.11104Z" fill="#FFED00" stroke="#E30613" stroke-width="0.3" stroke-miterlimit="2.61"/>
<path fill-rule="evenodd" clip-rule="evenodd" d="M12.4708 12.8333C13.1619 13.246 13.8763 13.746 14.5286 14.0714C14.8703 14.246 14.4122 13.4365 14.1015 13.1825L15.1809 14.1984C15.1167 13.6437 14.9535 13.1057 14.6995 12.6111C15.0101 13.1667 15.3906 13.7064 15.6391 14.2778C15.5607 13.1486 15.2983 12.0407 14.8625 11C15.1346 11.5059 15.3582 12.0375 15.5304 12.5873L15.7633 11.6746L16.1361 13.619L16.4311 12.3175L16.9902 14.8968L16.9126 12.8651L17.2776 13.7698V12.4603L17.7046 13.6111L17.5959 11.6508L17.9376 13.0317L18.256 11.1984L18.4657 12.6111L18.8073 11.4762L18.7607 12.5635L19.4751 11.1349L19.3509 12.2063L20.1274 11.2222L19.8013 12.1111L20.539 11.4127L19.1335 13.4048L20.5623 12.381L19.1024 14.0476L19.9877 13.5714L19.2422 14.4365L20.174 13.6429L19.8401 14.2937L20.7021 13.2778L20.2594 14.5159L21.4553 12.9683L20.6788 14.5556L22.4104 13.1111L20.7952 14.9921L22.0144 14.4127L21.3155 15.0635L23.3656 14.3333L21.4242 15.4603L24.7478 14.7302L22.2551 15.627L23.5752 15.9365H22.3172L23.5519 17.1825L21.9445 16.3889C22.4373 16.8432 22.8967 17.3339 23.319 17.8571C22.8463 17.3608 22.3109 16.9311 21.7271 16.5794C22.4182 17.373 23.5985 18.3492 23.451 19.8889C23.2724 19.3175 23.2258 18.5 22.9229 18.1667C22.6201 17.8333 22.5813 17.7857 22.3871 17.6032L21.6106 16.9048C22.193 17.5476 22.6977 18.754 22.3871 18.1508C22.1618 17.7898 21.8591 17.4858 21.5019 17.2619C21.6904 17.6156 21.8191 17.9993 21.8824 18.3968C21.7391 18.0857 21.5647 17.7905 21.3621 17.5159V18.2302L21.1136 17.8016L21.6572 18.8968C20.7719 18.246 21.0748 18.2619 20.1041 17.881L19.4518 17.8333L19.1412 17.9444L19.6615 18.1587H19.3121L19.3587 18.2778L19.8479 18.7222L20.8263 19.2619H20.2983L20.4924 20.0556L18.9782 18.4683V19.2619L18.753 18.7064L18.9549 19.8571L18.5122 18.9921V20.0476L18.3026 19.5952L18.155 20.2857V19.4921L17.759 20.9603L17.627 18.2381L17.4562 19.2778L17.3863 18.746L17.1688 19.6429L17.1067 19L16.9204 19.4127L16.8272 18.7857L16.633 19.4921L16.4156 18.6429L16.2914 19.0159L16.1361 18.5635V19.6111V20.4048L15.8643 20.246L15.4061 20.6825V20.1508L14.979 20.9444C15.0963 20.6021 15.1618 20.2435 15.1732 19.881L14.816 20.5873C14.9561 20.1582 14.996 19.7016 14.9324 19.254L14.6063 19.746C14.6602 19.5827 14.6761 19.4088 14.6529 19.2381L14.0317 19.9444C14.2413 19.9444 14.2801 19.1984 14.2801 18.9127L13.589 20.0079C13.8037 19.4541 13.9524 18.8759 14.0317 18.2857C13.8288 18.5714 13.6594 18.8804 13.5269 19.2064C13.5146 18.9572 13.5435 18.7076 13.6123 18.4683C13.0674 19.0865 12.6759 19.8296 12.4708 20.6349C12.4782 20.0197 12.5537 19.4073 12.696 18.8095C12.696 18.6032 12.7581 18.3968 12.797 18.1825C12.0204 18.754 10.6072 18.4603 9.69085 18.9762L12.7504 17.6905C13.193 17.5794 10.9488 17.873 11.3914 17.7778L13.1775 17.1825C12.8792 17.0698 12.5547 17.0504 12.2456 17.127C12.5407 17.0476 12.8669 16.9921 13.1386 16.8968C13.2318 16.8571 12.5252 16.8095 12.7193 16.754L13.2784 16.5714L12.5019 16.4286C12.2068 16.373 13.6279 16.381 13.3483 16.2857C12.0429 15.9125 10.6623 15.9125 9.35694 16.2857C9.05409 16.3571 10.1335 16.1032 10.3354 15.7063C10.5373 15.3095 9.02303 15.3095 9.41906 15.2857C10.6105 15.2892 11.7998 15.39 12.9756 15.5873C13.9385 15.6746 9.14727 14.881 10.1335 14.8333C11.0523 14.8022 11.9673 14.9671 12.8203 15.3175C13.5968 15.627 11.0886 14.0079 11.8651 14.2619C12.4242 14.4444 12.7271 15.5397 13.6123 15.4365C13.6123 15.4365 11.7564 13.6349 12.6572 14.2698C13.0299 14.5317 13.3328 14.381 13.5269 14.6429C13.3272 14.3939 13.148 14.1284 12.9911 13.8492C13.4594 14.1791 13.8892 14.5625 14.2724 14.9921C14.9169 15.6032 13.2784 13.4048 12.4708 12.8254V12.8333Z" fill="#E30613" stroke="#E30613" stroke-width="0.18" stroke-miterlimit="2.61"/>
<path fill-rule="evenodd" clip-rule="evenodd" d="M13.5889 31.6588C13.6455 31.0642 13.8941 30.5058 14.2955 30.0715L15.7243 28.6509L15.8874 28.1588L15.0099 27.1588L14.4508 24.4049L16.0039 26.389L16.2291 25.5953L14.676 23.8096L13.9927 22.135L15.9651 20.1191L17.3317 21.762L17.3783 23.5636C18.1549 24.2223 19.2265 26.1509 19.0479 26.9366C18.902 27.4743 18.6655 27.9819 18.349 28.4366L17.5725 29.2303L17.6191 29.4604L18.6829 28.8017L18.4655 29.8969L17.5569 31.2144V32.4525L16.8736 32.762C15.7335 32.5537 14.6277 32.1823 13.5889 31.6588Z" fill="#009FE3" stroke="#009FE3" stroke-width="0.22" stroke-miterlimit="2.61"/>
<path fill-rule="evenodd" clip-rule="evenodd" d="M14.2256 35.492L15.4447 32.7539L14.9322 35.2222L14.2256 35.492Z" fill="white" stroke="white" stroke-width="0.22" stroke-miterlimit="2.61"/>
<path fill-rule="evenodd" clip-rule="evenodd" d="M15.0029 25.7461L15.8105 26.8651L15.9503 27.5239L15.3834 27.0397L15.0029 25.7461Z" fill="white" stroke="white" stroke-width="0.22" stroke-miterlimit="2.61"/>
<path fill-rule="evenodd" clip-rule="evenodd" d="M15.267 30.5161V31.6431L15.1117 32.1114L14.6924 31.9844L14.7079 31.4288L15.267 30.5161Z" fill="white" stroke="white" stroke-width="0.22" stroke-miterlimit="2.61"/>
<path fill-rule="evenodd" clip-rule="evenodd" d="M17.014 29.2617L16.4316 29.8411L16.8354 30.0316L17.1305 29.7458L17.014 29.2617Z" fill="white" stroke="white" stroke-width="0.22" stroke-miterlimit="2.61"/>
<path fill-rule="evenodd" clip-rule="evenodd" d="M16.2217 31.2936L16.4236 30.5158L18.0155 29.7539L16.905 31.2222L16.2217 31.2936Z" fill="white" stroke="white" stroke-width="0.22" stroke-miterlimit="2.61"/>
<path fill-rule="evenodd" clip-rule="evenodd" d="M16.0201 31.9601L17.1616 31.4521L17.2393 32.476L16.9287 32.6585L15.958 32.4442L16.0201 31.9601Z" fill="white" stroke="white" stroke-width="0.22" stroke-miterlimit="2.61"/>
<path fill-rule="evenodd" clip-rule="evenodd" d="M9.62891 6.88911L11.4615 6.61133L11.8964 6.97641L9.62891 6.88911Z" fill="white" stroke="white" stroke-width="0.22" stroke-miterlimit="2.61"/>
<path fill-rule="evenodd" clip-rule="evenodd" d="M22.6982 6.34902L24.8104 6.26172L28.4057 7.05537L27.7379 6.75378C26.8112 6.69513 25.8899 6.56781 24.9812 6.37283C24.2246 6.26737 23.4585 6.25139 22.6982 6.32521V6.34902Z" fill="white" stroke="white" stroke-width="0.22" stroke-miterlimit="2.61"/>
<path fill-rule="evenodd" clip-rule="evenodd" d="M19.5768 7.00801C19.6299 7.00567 19.6819 7.02403 19.7222 7.0594C19.7626 7.09476 19.7883 7.14448 19.7942 7.19849C19.7883 7.25185 19.7623 7.30076 19.7217 7.33484C19.6811 7.36893 19.6291 7.38549 19.5768 7.38103C19.5502 7.38434 19.5233 7.38223 19.4976 7.37482C19.4718 7.36741 19.4478 7.35485 19.4268 7.33787C19.4059 7.32089 19.3884 7.29982 19.3755 7.2759C19.3626 7.25197 19.3545 7.22566 19.3516 7.19849C19.3575 7.14302 19.3843 7.09209 19.4263 7.05652C19.4684 7.02096 19.5223 7.00355 19.5768 7.00801Z" fill="white" stroke="white" stroke-width="0.22" stroke-miterlimit="2.61"/>
<path fill-rule="evenodd" clip-rule="evenodd" d="M20.9121 6.76178C20.9446 6.75553 20.9781 6.75668 21.0101 6.76515C21.0422 6.77363 21.072 6.78922 21.0975 6.81082C21.123 6.83241 21.1435 6.85949 21.1575 6.89011C21.1716 6.92073 21.1789 6.95414 21.1789 6.98797C21.1789 7.0218 21.1716 7.05522 21.1575 7.08584C21.1435 7.11646 21.123 7.14353 21.0975 7.16513C21.072 7.18672 21.0422 7.20231 21.0101 7.21079C20.9781 7.21927 20.9446 7.22042 20.9121 7.21416C20.8605 7.20424 20.8139 7.17621 20.7804 7.1349C20.7469 7.0936 20.7285 7.04163 20.7285 6.98797C20.7285 6.93431 20.7469 6.88234 20.7804 6.84104C20.8139 6.79974 20.8605 6.7717 20.9121 6.76178Z" fill="white" stroke="white" stroke-width="0.22" stroke-miterlimit="2.61"/>
<path d="M32.5912 21.2542L31.8146 23.9605M31.8146 24.278L31.4341 25.7066M31.4341 26.0161L30.2227 31.7542M2.2676 24.1907L3.47122 32.6986M1.46777 12.6113L2.87329 24.897" stroke="white" stroke-width="0.3" stroke-miterlimit="2.61"/>
<path fill-rule="evenodd" clip-rule="evenodd" d="M6.81753 32.5C6.43703 32.5794 7.31451 32.1191 7.64065 31.9207C8.03557 31.6921 8.47118 31.5464 8.92193 31.4921C9.35036 31.4447 9.78255 31.4447 10.211 31.4921C10.724 31.5769 11.2282 31.7098 11.7174 31.8889H9.83824L6.81753 32.5Z" fill="white" stroke="white" stroke-width="0.22" stroke-miterlimit="2.61"/>
<path fill-rule="evenodd" clip-rule="evenodd" d="M19.3359 31.8017C19.4855 31.6221 19.6822 31.4899 19.9028 31.4207C20.186 31.2897 20.4872 31.2041 20.7958 31.1668C21.4245 31.0798 22.0618 31.0798 22.6906 31.1668L20.7958 31.4366L19.3437 31.8017H19.3359Z" fill="white" stroke="white" stroke-width="0.22" stroke-miterlimit="2.61"/>
<path d="M23.1719 31.4204L24.9579 31.5474" stroke="white" stroke-width="0.22" stroke-miterlimit="2.61"/>
</svg>
